<svg xmlns="http://www.w3.org/2000/svg" data-name="Layer 1" viewBox="0 0 512 512">
	<title>MQTT Hub</title>
	<g transform="scale(5)">
	<path d="M86.2,47a8.31,8.31,0,0,0-7.86,5.67l-11.5-2.78a21.75,21.75,0,0,0-4.16-17.47L73.2,23.51A13.23,13.23,0,1,0,71.92,22L61.39,30.9a21.77,21.77,0,0,0-29.54-2.24L20.8,16a8.22,8.22,0,1,0-1.5,1.32L30.34,30a21.79,21.79,0,0,0,1.83,33.11L24.06,74.78a13,13,0,1,0,1.65,1.13l8.1-11.69a21.76,21.76,0,0,0,23.09.07l11.68,17a5.75,5.75,0,1,0,1.65-1.13l-11.68-17a21.9,21.9,0,0,0,7.81-11.33l11.57,2.79c0,.22,0,.44,0,.66A8.3,8.3,0,1,0,86.2,47ZM71.43,14.36a11.1,11.1,0,1,1,2,6.33A11,11,0,0,1,71.43,14.36ZM18,15.78a6.28,6.28,0,1,1,1.51-1.31A6.34,6.34,0,0,1,18,15.78ZM28.52,86a11,11,0,1,1-4-8.45A11,11,0,0,1,28.52,86Zm41.23-3a3.7,3.7,0,1,1-.88,2.37A3.7,3.7,0,0,1,69.75,83ZM64.88,49.42A19.77,19.77,0,0,1,35,62.57,19.85,19.85,0,1,1,64.88,49.42ZM86.2,61.59a6.3,6.3,0,0,1-6.3-6.3c0-.06,0-.12,0-.19a6.29,6.29,0,1,1,6.29,6.48Z"/>
	</g>
	<g transform="scale(.15) translate(1000, 1000)">
		<path d="M512.816087 545.362852c3.187599-7.636934 9.662057-11.972683 18.542308-13.920034-62.887282-92.753497-147.370419-202.139813-206.302623-312.921919C300.190455 171.772178 280.788569 98.670254 225.388818 91.050716c-41.745776-5.767354-79.232552 29.638017-76.501348 62.579267 1.298576 15.488763 25.914206 39.74112 39.415708 55.628972 74.763774 87.922469 151.686724 163.755598 229.467205 245.699911C449.08867 487.959467 478.363414 521.454326 512.816087 545.362852zM489.630015 577.808822c-0.629333-9.127891 0.899486-16.09763 6.952342-18.541285-59.105143-63.096037-123.57548-125.447107-187.759291-194.711634-61.129242-65.979714-120.902604-138.891304-180.789553-199.332884-3.151783-3.188622-18.028609-6.779404-27.805276-4.640694-29.79049 6.493901-46.023196 62.427818-46.367027 106.636692-0.801249 103.963817 54.654784 178.039929 115.898637 234.107899 44.439118 40.675398 97.088222 75.776847 157.625994 106.61725 19.573801 9.968026 46.710858 26.487258 60.269665 25.51307 15.582907-1.14508 36.779671-19.629059 50.988278-27.823696C454.970634 596.199681 469.178217 586.325799 489.630015 577.808822zM670.44208 457.269491c15.945157 8.804527 36.45426 25.342178 62.577221 16.232706 3.361561-4.926196-8.648984-8.631588-11.590989-20.852934-12.278651-51.178613 41.269939-66.552765 48.677653-16.232706 15.565511-76.692706-33.342386-166.56355-115.898637-150.674675-13.063527 2.520403-29.045523 14.667048-30.133298 25.514093-1.453095 14.474666 19.745716 38.078247 27.821649 55.628972C664.731008 394.823254 671.871639 417.205007 670.44208 457.269491zM628.7137 503.637542c-57.670467-19.039635-4.084015-122.277928 25.494651-53.318346 13.253862-85.936231-74.953086-197.250456-157.62497-139.063219-15.334243 10.788717-32.310893 37.696554-27.805276 74.17128C477.161029 453.451536 549.022707 528.253172 628.7137 503.637542zM730.709699 422.51392c-2.806929 13.845333 7.257288 18.389836 16.213263 13.901615 2.674922-2.731204 2.616594-8.191566 2.330068-13.901615C744.689085 417.911088 736.019635 421.043429 730.709699 422.51392zM614.812085 445.697945c0.01842 6.149047-0.877997 13.233396 2.310625 16.21224 3.857864 0 7.734148 0 11.590989 0C638.624421 452.93579 628.388289 437.161524 614.812085 445.697945zM535.999089 547.674501c-12.031011 4.199649-21.408589 11.056823-30.134321 18.562774 3.225461 3.704368 11.43954 2.462075 13.901615 6.930853-15.123442 20.700461-44.190455 27.365254-69.530586 41.727357-23.355941 13.234419-45.736671 34.048467-69.551052 41.724287-31.223119 10.083659-73.885777-0.170892-85.764316 37.086663 19.899212 1.356904 21.083178-16.003486 39.416731-16.21224 2.654456 20.700461-34.94693 20.470217-30.134321 50.987255 18.676361-2.961448 18.962887-24.310685 39.396265-25.494651 2.998287 15.775288-22.552645 21.941732-23.183002 41.726334 27.672246 3.704368 25.990954-21.923312 46.36805-25.51307 14.933107 1.298576 5.53711 26.926256 16.231683 32.464389 19.668968-20.584827-9.643638-42.794665 0-64.909335 18.160615-41.670052 102.377692-63.744813 148.343583-78.81402-1.908466 11.230786-13.329587 12.94687-18.542308 20.85498 12.94687 38.555108 85.897346 28.051893 97.356328-4.622274C570.487577 613.634772 540.906865 592.990592 535.999089 547.674501zM621.764428 633.457236c30.017664 13.214976 80.264045 36.81958 69.530586 83.434248-3.247974 14.150278-15.908318 12.471033-18.543332 30.135344 18.925025 1.966795 21.578458-9.54847 34.775015-6.952342 19.936051 3.897773 18.618033 37.105083 41.726334 39.397289 6.894014-18.180058-14.284331-27.117614-13.903661-46.347584 13.959943-7.04751 12.605086 19.288299 30.116925 16.214287 10.216689-19.289322-12.698207-23.947412-16.213263-37.086663 13.042037-8.66945 19.554358 17.798365 32.443923 9.280364-0.056282-24.673959-35.862789-13.596669-57.938574-16.231683-18.160615-25.111934-35.672454-50.873668-55.627948-74.172303C651.706367 635.098619 626.288464 619.153462 621.764428 633.457236zM498.912425 633.457236c-14.475689 4.069689-25.493627 11.592013-39.414685 16.21531 4.735861 5.326309 19.24839 0.838088 27.822672 2.310625C490.796584 645.431965 497.537102 642.10929 498.912425 633.457236zM471.08873 723.843826c12.431124 31.202653 65.233724 43.73099 85.764316 11.590989-6.377244-16.519232-9.872858-43.979654-4.640694-64.910359-21.598924 0.743944-32.980135-8.727779-41.706891-20.852934C491.159858 668.174945 484.01718 698.902784 471.08873 723.843826zM466.447013 744.715179c-52.477188 75.756381 83.912132 116.26191 113.589035 53.298903-4.066619-16.021905-8.039093-32.138978-16.231683-44.035936-9.261944-3.571339-15.125489 13.118785-30.134321 16.231683C503.89695 776.379343 479.682455 757.644653 466.447013 744.715179zM454.87649 814.245765c-20.491707 76.198449 68.88181 155.087171 120.518864 101.998045 18.467607-19.001773 20.549012-63.669088 11.592013-99.686397C562.352293 850.319355 473.45666 861.626889 454.87649 814.245765zM840.956615 573.168128c-44.840254-23.831778-76.959789-60.32697-140.381238-44.036959-8.135284-23.757077 32.465412-23.25975 53.318346-18.543332 1.12666-10.408047-1.184989-17.358343-2.329045-25.494651-27.347858 10.42749-68.13889 8.518001-81.122599-13.901615-12.682857 44.51382-78.910211 71.574129-125.181047 41.726334-2.483564 57.271378 37.410028 101.862969 99.686397 104.306624 39.299051 1.527796 80.301907-14.665001 95.025237-48.676629-13.253862-4.526083-38.613436 3.054569-44.036959-9.280364 21.215184-7.696286 62.197574-4.16281 96.341209 6.970762 24.730241 8.039093 38.538735 25.303292 41.72838 55.609529 46.403866 42.450834 94.033653 83.681888 132.129296 134.442992-18.008142-37.660738-45.37442-73.255421-78.812997-104.307647C864.368838 630.688169 839.084988 619.249653 840.956615 573.168128zM682.051489 234.58169c14.742772-4.9088 49.174979-27.423583 74.191746-9.261944C747.400846 189.302437 685.640224 205.67022 682.051489 234.58169zM461.846228 262.406408c10.617825-19.612687 47.360657-35.023678 69.53161-16.232706C533.592272 210.137974 452.392926 218.559784 461.846228 262.406408zM592.813049 302.585503c-13.273305-18.676361-30.651091-28.855188-37.08564-48.677653 9.910721 0.382717 24.670889 26.907836 23.183002 16.213263-13.520945-41.11542-26.716478-116.39494 18.541285-132.1119-27.136034 51.638077-16.519232 132.837424 18.544355 166.887938l4.41045 17.778922L592.813049 302.585503z" />
	</g>
</svg>