<svg xmlns="http://www.w3.org/2000/svg" data-name="Layer 1" viewBox="0 0 512 512">
	<g transform="matrix(1,0,0,1,0,0)" name="Layer" jvs-layer-color="#fb0094" class="jvs-layer selected">
		<title>MQTT Hub</title>
		<g transform="scale(5)">
			<path d="M 86.2 47 C 82.6350143952922 47.008368246746045 79.47255190342652 49.28968661580433 78.34 52.67 L 66.84 49.89 C 68.03437975348716 43.73930603157062 66.51825487433564 37.37231045154203 62.68000000000001 32.42 L 73.2 23.51 C 80.34823309592069 30.764375480107446 92.66897060210077 27.560170841947897 95.37732750850441 17.742431648654176 C 98.08568441490804 7.924692455360454 89.15039304500719 -1.1432768947738574 79.29380304268287 1.4200868184124147 C 70.27182171882389 3.766397209853143 66.44101715565775 14.457979948817005 71.92 22 L 61.39 30.9 C 53.64782280871428 22.535796482555355 40.764902197488915 21.55889255455845 31.85 28.659999999999997 L 20.8 16 C 25.007050156217907 11.273345547176078 22.519702963532637 3.764921127997546 16.32277505436733 2.484836044129505 C 10.125847145202023 1.2047509602614639 4.867034449929637 7.113069026291362 6.856912202877031 13.119808562983325 C 8.576024745348708 18.309203369570046 14.78753905741264 20.405913581734954 19.3 17.32 L 30.34 30 C 20.633718260904267 39.24927300749824 21.50353269244748 54.986735167258665 32.17 63.11 L 24.06 74.78 C 15.39279543317533 69.77722945309685 4.56013461132127 76.03302203600236 4.5612105118109 86.0404266441206 C 4.562286412300531 96.04783125223884 15.396292120831363 102.30129443586779 24.062420787166403 97.2966603746527 C 31.974481070661348 92.72749599760085 32.82885880472019 81.63711186835349 25.709999999999997 75.91 L 33.809999999999995 64.22 C 40.85860842381892 68.66170252572752 49.82459031599835 68.68888393151275 56.89999999999999 64.28999999999999 L 68.57999999999998 81.28999999999999 C 65.4185674241936 84.3880536892092 66.79641356130779 89.74668839816219 71.06012304635425 90.93554247655759 C 75.32383253140071 92.12439655495298 79.27562325115869 88.25182944344147 78.1733463419186 83.96492167583686 C 77.28336910602712 80.50367678033714 73.4848730847342 78.68416907834921 70.22999999999999 80.16 L 58.54999999999999 63.16 C 62.30307692997394 60.32059022527284 65.04165655029405 56.34772120208146 66.35999999999999 51.83 L 77.92999999999998 54.62 C 77.92999999999998 54.839999999999996 77.92999999999998 55.059999999999995 77.92999999999998 55.279999999999994 C 77.91464566126824 61.669324529869 84.82169589442667 65.67927391873323 90.36269041968217 62.497908901198734 C 95.90368494493767 59.31654388366424 95.92287786835234 51.32988822132797 90.39723768182859 48.121928708993465 C 89.12258878063493 47.381919962596356 87.67387734568103 46.994676848054354 86.2 47 Z M 71.43 14.36 C 71.40987471808121 5.815239716272842 80.64727076057011 0.45297827925792866 88.05731287648555 4.707929415721507 C 95.467354992401 8.962880552185085 95.4925115947995 19.64383090684403 88.10259476080284 23.933640054107613 C 83.11210375890134 26.83059470599313 76.73427001912496 25.42066024312177 73.43 20.689999999999998 C 72.12736186564804 18.83631427785525 71.42887897989019 16.625615944696975 71.43 14.36 Z M 18 15.78 C 13.890662911339785 18.326419524639505 8.56574723084436 15.469443840523954 8.415151778143962 10.637443766710868 C 8.264556325443563 5.805443692897782 13.401227686268829 2.622419287098399 17.661160227629445 4.907999836271977 C 21.167994740314445 6.789520887026319 22.0627019951537 11.41685043148412 19.51 14.469999999999999 C 19.0791090065719 14.983770800539462 18.569441610181578 15.425932582269661 18 15.78 Z M 28.52 86 C 28.547195639485572 94.46776027653692 19.39757352337542 99.7895505953558 12.050680190994917 95.57922257175402 C 4.703786858614414 91.36889454815223 4.669792309257442 80.78419420248107 11.98949000215237 76.52676194954594 C 15.96893137916062 74.21215788009306 20.968795200264562 74.62044540216277 24.52 77.55 C 27.043494523800682 79.63174842109024 28.50949357681968 82.72867141432786 28.52 86 Z M 69.75 83 C 71.59400416826283 80.82923027015256 75.09643393803059 81.46869225719124 76.05437358571334 84.15103157651495 C 77.01231323339609 86.83337089583867 74.70730802306755 89.54683305814798 71.90536420712198 89.0352634686717 C 70.13785187368332 88.7125569412725 68.85765030444946 87.16668774045566 68.87 85.37 C 68.87597189942292 84.50118194400171 69.18750176740241 83.66217536675411 69.75 83 Z M 64.88 49.42 C 62.322231428496025 63.096507038110744 46.8124068662506 69.92228324094101 35 62.57 C 21.979918538887006 54.57173183990456 22.500746905524807 35.47816261741515 35.93749104900417 28.201575392796197 C 49.37423519248354 20.924988168177244 65.64933701887479 30.922823368296534 65.23267433650842 46.19767875301092 C 65.20316190945191 47.27960443154803 65.08521060842173 48.35730401176069 64.88 49.42 Z M 86.2 61.59 C 82.720606076066 61.59 79.9 58.769393923934004 79.9 55.290000000000006 C 79.9 55.230000000000004 79.9 55.17000000000001 79.9 55.10000000000001 C 80.04626257048174 50.26016530725805 85.37695141949966 47.3936025037819 89.49523992829059 49.940186951812876 C 93.61352843708151 52.48677139984385 93.43070022397933 58.53656476577131 89.16614914470667 60.82981501048229 C 88.25126384822872 61.32179198321171 87.22877631035936 61.57952624507469 86.19000000000001 61.58000000000001 Z" transform="matrix(1 0 0 1 0 0)"></path>
		</g>
		<path d="M 122.41219329833984 247.09042358398438 C 153.32859802246094 278.0828552246094 279.08306884765625 301.0087890625 325.4576110839844 217.3716583251953" fill="none" fill-rule="nonzero" stroke="#000000" stroke-width="5" stroke-linecap="round" stroke-linejoin="miter" stroke-miterlimit="10" stroke-dasharray="" stroke-dashoffset="0" font-family="none" font-weight="none" font-size="none" text-anchor="none" style="mix-blend-mode: normal" transform="matrix(1 0 0 1 4.35875 0.0448958)"></path>
		<ellipse cx="166.27300871053416" cy="301.9886271521729" rx="8.931262484193844" ry="9.438721362963559" fill="none" stroke="#000000" stroke-width="4.51613594229387" stroke-linecap="round" stroke-linejoin="miter" opacity="1" transform="matrix(1 0 0 1 14.0522 30.4452)"></ellipse>
		<ellipse cx="266.67640686035156" cy="339.84996032714844" rx="8.652145385742188" ry="8.989242553710938" fill="none" stroke="#000000" stroke-width="5.00" stroke-linecap="round" stroke-linejoin="miter" opacity="1" transform="matrix(1 0 0 1 7.64086 -7.39355)"></ellipse>
	</g>
</svg>
